# AST/ASF file generated using VICON BodyLanguage
# -----------------------------------------------
:version 1.10
:name VICON
:units
  mass 1.0
  length 0.45
  angle deg
:documentation
   .ast/.asf automatically generated from VICON data using
   VICON BodyBuilder and BodyLanguage model FoxedUp or BRILLIANT.MOD
:root
   order TX TY TZ RX RY RZ
   axis XYZ
   position 0 0 0  
   orientation 0 0 0 
:bonedata
  begin
     id 1 
     name lhipjoint
     direction 0.734343 -0.627749 0.258209 
     length 2.5437 
     axis 0 0 0  XYZ
  end
  begin
     id 2 
     name lfemur
     direction 0.34202 -0.939693 0  
     length 6.7391  
     axis 0 0 20  XYZ
    dof rx ry rz
    limits (-160.0 20.0)
           (-70.0 70.0)
           (-60.0 70.0)
  end
  begin
     id 3 
     name ltibia
     direction 0.34202 -0.939693 0   
     length 7.21536   
     axis 0 0 20   XYZ
    dof rx
    limits (-10.0 170.0)
  end
  begin
     id 4 
     name lfoot
     direction 0.0489572 -0.134509 0.989702   
     length 1.61313   
     axis -90 7.62852e-016 20   XYZ
    dof rx rz
    limits (-45.0 90.0)
           (-70.0 20.0)
  end
  begin
     id 5 
     name ltoes
     direction 1.53451e-011 -4.21692e-011 1   
     length 0.823104   
     axis -90 7.62852e-016 20   XYZ
    dof rx
    limits (-90.0 20.0)
  end
  begin
     id 6 
     name rhipjoint
     direction -0.746398 -0.615468 0.253157   
     length 2.59446  
     axis 0 0 0  XYZ 
  end
  begin
     id 7 
     name rfemur
     direction -0.34202 -0.939693 0   
     length 6.7075   
     axis 0 0 -20   XYZ
    dof rx ry rz
    limits (-160.0 20.0)
           (-70.0 70.0)
           (-70.0 60.0)
  end
  begin
     id 8 
     name rtibia
     direction -0.34202 -0.939693 0   
     length 7.27262   
     axis 0 0 -20   XYZ
    dof rx
    limits (-10.0 170.0)
 end
 begin
     id 9 
     name rfoot
     direction -0.0455203 -0.125066 0.991104   
     length 1.91095  
     axis -90 -7.62852e-016 -20   XYZ
    dof rx rz
    limits (-45.0 90.0)
           (-20.0 70.0)
  end
  begin
     id 10 
     name rtoes
     direction -1.53601e-011 -4.21913e-011 1   
     length 0.969037   
     axis -90 -7.62852e-016 -20   XYZ
    dof rx
    limits (-90.0 20.0)
  end
  begin
     id 11 
     name lowerback
     direction 0.0181546 0.999122 -0.0377542   
     length 1.99916   
     axis 0 0 0   XYZ
    dof rx ry rz
    limits (-20.0 45.0)
           (-30.0 30.0)
           (-30.0 30.0)
  end
  begin
     id 12 
     name upperback
     direction 0.0203486 0.99589 0.0882534   
     length 1.951   
     axis 0 0 0   XYZ
    dof rx ry rz
    limits (-20.0 45.0)
           (-30.0 30.0)
           (-30.0 30.0)
  end
  begin
     id 13 
     name thorax
     direction 0.0131685 0.994241 0.106355   
     length 1.97461   
     axis 0 0 0   XYZ
    dof rx ry rz
    limits (-20.0 45.0)
           (-30.0 30.0)
           (-30.0 30.0)
  end
  begin
     id 14 
     name lowerneck
     direction -0.0281395 0.999325 0.023617   
     length 1.7959   
     axis 0 0 0   XYZ
    dof rx ry rz
    limits (-20.0 45.0)
           (-30.0 30.0)
           (-30.0 30.0)
  end
  begin
     id 15 
     name upperneck
     direction 0.0288721 0.991984 -0.123019   
     length 1.79917   
     axis 0 0 0   XYZ
    dof rx ry rz
    limits (-20.0 45.0)
           (-30.0 30.0)
           (-30.0 30.0)
  end
  begin
     id 16
     name head
     direction 0.0133797 0.998944 -0.0439492  
     length 1.80902  
     axis 0 0 0   XYZ
    dof rx ry rz
    limits (-20.0 45.0)
           (-30.0 30.0)
           (-30.0 30.0)
  end
  begin
     id 17 
     name lclavicle
     direction 0.919195 0.377107 0.113449  
     length 3.17815  
     axis 0 0 0   XYZ
    dof ry rz
    limits (-20.0 10.0)
           (0.0 20.0)
  end
  begin
     id 18 
     name lhumerus
     direction 1 -4.48959e-011 2.13129e-027   
     length 4.84137   
     axis 180 -30 -90   XYZ
    dof rx ry rz
    limits (-60.0 90.0)
           (-90.0 90.0)
           (-90.0 90.0)
  end
  begin
     id 19
     name lradius
     direction 1 -4.48957e-011 -6.30627e-028   
     length 3.2452   
     axis 180 -30 -90   XYZ
    dof rx
    limits (-10.0 170.0)
  end
  begin
     id 20
     name lwrist
     direction 1 -4.4901e-011 9.13299e-027   
     length 1.6226   
     axis -6.84618e-015 90 90   XYZ
    dof ry
    limits (-180.0 0.0)
 end
  begin
     id 21 
     name lhand
     direction 1 -4.48816e-011 1.82293e-026   
     length 0.521221   
     axis -1.16502e-014 90 90   XYZ
    dof rx rz
    limits (-90.0 90.0)
           (-45.0 45.0)
  end
  begin
     id 22 
     name lfingers
     direction 1 -4.49108e-011 3.65687e-026   
     length 0.420221   
     axis -2.33008e-014 90 90   XYZ
    dof rx
    limits (0.0 90.0)
  end
  begin
     id 23
     name lthumb
     direction 0.707107 -6.34943e-011 0.707107   
     length 0.603356   
     axis -90 45 5.69224e-014   XYZ
    dof rx rz
    limits (-45.0 45.0)
           (-45.0 45.0)
  end
  begin
     id 24 
     name rclavicle
     direction -0.90847 0.38596 0.160368   
     length 3.12973  
     axis 0 0 0   XYZ 
    dof ry rz
    limits (-10.0 20.0)
           (-20.0 0.0)
  end
  begin
     id 25 
     name rhumerus
     direction -1 -4.48974e-011 4.47268e-028  
     length 4.72284   
     axis 180 30 90   XYZ
    dof rx ry rz
    limits (-90.0 60.0)
           (-90.0 90.0)
           (-90.0 90.0)
  end
  begin
     id 26 
     name rradius
     direction -1 -4.48969e-011 3.43203e-027   
     length 3.23459   
     axis 180 30 90   XYZ
    dof rx
    limits (-10.0 170.0)
  end
  begin
     id 27 
     name rwrist
     direction -1 -4.48969e-011 9.12911e-027   
     length 1.6173   
     axis -6.84618e-015 -90 -90   XYZ
    dof ry
    limits (-180.0 0.0)
  end
  begin
     id 28
     name rhand
     direction -1 -4.49194e-011 1.83006e-026   
     length 0.307416   
     axis -1.16502e-014 -90 -90   XYZ
    dof rx rz
    limits (-90.0 90.0)
           (-45.0 45.0)
  end
  begin
     id 29
     name rfingers
     direction -1 -4.48423e-011 3.63103e-026   
     length 0.247847   
     axis -2.33008e-014 -90 -90   XYZ
    dof rx
    limits (0.0 90.0)
  end
  begin
     id 30
     name rthumb
     direction -0.707107 -6.34802e-011 0.707107   
     length 0.35586   
     axis -90 -45 -5.69224e-014   XYZ
    dof rx rz
    limits (-45.0 45.0)
           (-45.0 45.0)
  end
:hierarchy
  begin
    root lhipjoint rhipjoint lowerback
    lhipjoint lfemur
    lfemur ltibia
    ltibia lfoot
    lfoot ltoes
    rhipjoint rfemur
    rfemur rtibia
    rtibia rfoot
    rfoot rtoes
    lowerback upperback
    upperback thorax
    thorax lowerneck lclavicle rclavicle
    lowerneck upperneck
    upperneck head
    lclavicle lhumerus
    lhumerus lradius
    lradius lwrist
    lwrist lhand lthumb
    lhand lfingers
    rclavicle rhumerus
    rhumerus rradius
    rradius rwrist
    rwrist rhand rthumb
    rhand rfingers
  end

#!OML:ASF H:\Terrain\Patient Classification 1\Animal1\Tuesday\Animal1.ASF
:FULLY-SPECIFIED
:DEGREES
721
root -3.89013 15.1054 -11.372 -167.254 41.2834 171.668
lowerback 25.6602 -2.26924 5.1618
upperback 11.8612 0.213019 0.727776
thorax -1.11421 1.05495 -2.22139
lowerneck -9.1497 -5.33207 -7.81188
upperneck -13.9663 -3.93279 19.5272
head -1.84695 -1.53093 7.30352
rclavicle 4.13472e-014 -3.02153e-014
rhumerus 29.3235 14.289 -48.5823
rradius 28.1161
rwrist -43.4511
rhand 8.66216 21.5964
rfingers 7.12502
rthumb 33.8564 -5.21917
lclavicle 4.13472e-014 -3.02153e-014
lhumerus 20.8616 -32.734 29.5761
lradius 42.4351
lwrist 9.88699
lhand 32.7332 43.2544
lfingers 7.12502
lthumb 56.146 60.5304
rfemur -54.8174 -4.2384 23.3097
rtibia 59.5644
rfoot -23.3762 -26.7337
rtoes 35.7868
lfemur -57.6283 16.7817 -25.6136
ltibia 61.0049
lfoot -5.73402 6.64769
ltoes -12.3059
722
root -3.8419 15.0965 -11.4791 -167.077 42.0769 171.842
lowerback 25.8933 -2.28431 5.12907
upperback 12.1144 0.240043 0.65806
thorax -0.939674 1.09556 -2.28289
lowerneck -9.28939 -5.28249 -7.98965
upperneck -14.0382 -3.82069 19.6273
head -1.85061 -1.45994 7.37214
rclavicle -1.59028e-015 4.69132e-014
rhumerus 29.888 14.0289 -49.0126
rradius 28.2548
rwrist -43.525
rhand 8.4265 20.7159
rfingers 7.12502
rthumb 33.6324 -6.14867
lclavicle -1.59028e-015 4.69132e-014
lhumerus 21.4843 -32.2378 29.2926
lradius 42.3714
lwrist 10.5759
lhand 32.978 43.6584
lfingers 7.12502
lthumb 56.3625 60.7634
rfemur -54.5419 -4.14323 23.2548
rtibia 60.2118
rfoot -27.1243 -22.881
rtoes 42.1291
lfemur -58.0622 15.998 -25.6279
ltibia 58.251
lfoot -6.09513 6.95695
ltoes -18.7365
723
root -3.78706 15.049 -11.5991 -166.573 43.0166 172.587
lowerback 26.0484 -2.29489 5.34171
upperback 12.4499 0.337832 0.674581
thorax -0.627692 1.18825 -2.4053
lowerneck -8.90359 -5.15313 -8.483
upperneck -14.51 -3.52271 19.9038
head -2.06629 -1.3214 7.58135
rclavicle -3.02153e-014 -1.35174e-014
rhumerus 30.445 14.4288 -48.7624
rradius 28.8308
rwrist -44.5262
rhand 7.92637 19.3319
rfingers 7.12502
rthumb 33.157 -7.63508
lclavicle -3.02153e-014 -1.35174e-014
lhumerus 21.8585 -31.7194 29.1046
lradius 42.4898
lwrist 10.97
lhand 32.3891 44.0301
lfingers 7.12502
lthumb 55.8411 61.5424
rfemur -54.343 -3.89019 23.8476
rtibia 59.934
rfoot -22.7032 -26.4002
rtoes 31.8845
lfemur -58.4939 15.3649 -25.0133
ltibia 55.578
lfoot -6.54629 7.32564
ltoes -22.8553
724
root -3.73064 15.0281 -11.7183 -166.127 44.0039 173.322
lowerback 26.2875 -2.32259 5.28727
upperback 12.673 0.343276 0.772505
thorax -0.490756 1.2062 -2.26715
lowerneck -9.23928 -5.01583 -8.5374
upperneck -14.1368 -3.43446 19.5138
head -1.93235 -1.25409 7.45118
rclavicle 5.88403e-014 -3.02153e-014
rhumerus 30.9665 15.6065 -47.8717
rradius 29.5142
rwrist -45.852
rhand 8.5903 19.9222
rfingers 7.12502
rthumb 33.7881 -6.90833
lclavicle 5.88403e-014 -3.02153e-014
lhumerus 21.6498 -31.3156 29.3095
lradius 42.5228
lwrist 10.952
lhand 31.7494 43.6358
lfingers 7.12502
lthumb 55.2725 61.5756
rfemur -53.8935 -3.57024 24.3208
rtibia 59.8097
rfoot -21.2747 -27.3717
rtoes 25.9105
lfemur -58.6395 14.6963 -24.2699
ltibia 52.6602
lfoot -7.24602 7.74893
ltoes -23.8122
725
root -3.67315 15.0213 -11.8363 -165.965 44.9258 173.529
lowerback 26.4835 -2.22732 4.88258
upperback 12.8148 0.402447 0.83781
thorax -0.424575 1.22446 -1.98078
lowerneck -9.43291 -4.88861 -8.4637
upperneck -13.7274 -3.40004 18.9991
head -1.81242 -1.23037 7.25768
rclavicle 1.11319e-014 -4.05521e-014
rhumerus 31.2671 16.6527 -46.9654
rradius 30.2205
rwrist -46.77
rhand 9.05737 20.1126
rfingers 7.12502
rthumb 34.2317 -6.61945
lclavicle 1.11319e-014 -4.05521e-014
lhumerus 21.7533 -30.9724 29.6957
lradius 42.2755
lwrist 10.7715
lhand 31.5715 43.1443
lfingers 7.12502
lthumb 55.114 61.2002
rfemur -53.4423 -3.36317 24.3408
rtibia 59.5727
rfoot -21.3094 -27.1678
rtoes 23.5766
lfemur -58.6072 13.705 -23.7154
ltibia 49.6329
lfoot -8.33263 8.26417
ltoes -21.6517
726
root -3.61315 15.0172 -11.9511 -165.501 45.7789 173.983
lowerback 26.5289 -2.03676 4.74577
upperback 13.0532 0.646738 0.884894
thorax -0.163958 1.35814 -1.90915
lowerneck -9.69431 -4.98446 -8.36129
upperneck -13.6202 -3.56434 18.8911
head -1.72377 -1.30381 7.19207
rclavicle -1.74931e-014 -1.82882e-014
rhumerus 31.5969 17.1347 -46.2087
rradius 30.7253
rwrist -47.1906
rhand 8.87506 19.3992
rfingers 7.12502
rthumb 34.0586 -7.37153
lclavicle -1.74931e-014 -1.82882e-014
lhumerus 22.4444 -30.4498 29.8781
lradius 42.088
lwrist 10.4698
lhand 31.9361 43.1304
lfingers 7.12502
lthumb 55.4387 60.9469
rfemur -53.1654 -3.13234 24.5867
rtibia 59.4632
rfoot -20.6481 -27.4187
rtoes 21.0614
lfemur -58.5319 12.5188 -22.7048
ltibia 46.4076
lfoot -8.68187 8.833
ltoes -20.3851
727
root -3.55165 15.0128 -12.0686 -164.928 46.6598 174.637
lowerback 26.5709 -2.03834 4.52039
upperback 13.2858 0.624445 0.971033
thorax 0.0725176 1.35143 -1.67613
lowerneck -9.77718 -4.95568 -8.89857
upperneck -13.5901 -3.4607 19.278
head -1.68452 -1.23091 7.41677
rclavicle -1.74931e-014 -7.31528e-014
rhumerus 32.5195 18.3787 -44.9693
rradius 31.125
rwrist -47.7789
rhand 9.16385 20.0361
rfingers 7.12502
rthumb 34.3329 -6.67317
lclavicle -1.74931e-014 -7.31528e-014
lhumerus 22.2292 -29.6725 30.2081
lradius 42.1241
lwrist 10.1152
lhand 32.9635 42.7376
lfingers 7.12502
lthumb 56.3497 59.8528
rfemur -52.7902 -2.82218 24.8978
rtibia 59.417
rfoot -21.0786 -26.9447
rtoes 21.8513
lfemur -58.2961 11.3597 -21.4045
ltibia 43.0318
lfoot -8.71996 9.51699
ltoes -20.0141
728
root -3.48805 15.0074 -12.1959 -164.483 47.6245 175.188
lowerback 26.5883 -2.00151 4.28409
upperback 13.6016 0.655959 0.943755
thorax 0.420103 1.38315 -1.57095
lowerneck -10.3451 -4.97073 -9.2808
upperneck -13.2313 -3.44661 19.6099
head -1.46558 -1.17297 7.57946
rclavicle -1.35174e-014 1.19271e-014
rhumerus 33.2109 19.2338 -43.8955
rradius 31.6348
rwrist -48.2736
rhand 9.24987 20.9704
rfingers 7.12502
rthumb 34.4145 -5.72035
lclavicle -1.35174e-014 1.19271e-014
lhumerus 22.4549 -29.0788 30.081
lradius 42.1549
lwrist 10.1104
lhand 33.8445 42.4856
lfingers 7.12502
lthumb 57.1261 58.9661
rfemur -52.2486 -2.55606 25.0353
rtibia 59.3343
rfoot -21.8688 -26.0389
rtoes 22.5198
lfemur -57.8701 10.1896 -20.0333
ltibia 39.6398
lfoot -9.49668 10.3139
ltoes -17.0978
729
root -3.42442 15.0087 -12.3255 -163.707 48.5407 175.938
lowerback 26.3514 -1.87315 4.23221
upperback 13.8444 0.808538 0.994589
thorax 0.811769 1.46976 -1.51288
lowerneck -10.7727 -5.03168 -9.58132
upperneck -12.8634 -3.54125 19.7493
head -1.26232 -1.18408 7.66164
rclavicle -2.94201e-014 3.65764e-014
rhumerus 33.443 19.8465 -42.9131
rradius 32.3232
rwrist -48.5966
rhand 8.42915 20.3934
rfingers 7.12502
rthumb 33.635 -6.47069
lclavicle -2.94201e-014 3.65764e-014
lhumerus 23.0587 -28.77 30.1454
lradius 41.9081
lwrist 10.1131
lhand 34.1864 42.6275
lfingers 7.12502
lthumb 57.4261 58.8529
rfemur -51.8289 -2.35011 25.3493
rtibia 59.1696
rfoot -21.3606 -25.6734
rtoes 19.3139
lfemur -57.4901 8.71982 -18.1679
ltibia 36.314
lfoot -10.0909 11.5183
ltoes -16.4653
730
root -3.35984 15.0294 -12.4515 -162.979 49.5061 176.678
lowerback 26.1692 -1.68817 4.00791
upperback 14.0124 0.987624 1.12417
thorax 1.08969 1.5469 -1.28006
lowerneck -10.6161 -5.02448 -10.0966
upperneck -12.9531 -3.48213 19.986
head -1.29832 -1.15139 7.83934
rclavicle -1.06549e-013 2.46493e-014
rhumerus 33.6424 20.6778 -41.7348
rradius 32.9595
rwrist -49.1375
rhand 7.60526 20.3726
rfingers 7.12502
rthumb 32.8516 -6.65881
lclavicle -1.06549e-013 2.46493e-014
lhumerus 23.5112 -28.6799 30.4419
lradius 41.6385
lwrist 10.0943
lhand 34.4023 42.8631
lfingers 7.12502
lthumb 57.6153 58.9248
rfemur -51.3381 -2.07557 25.5887
rtibia 58.9389
rfoot -22.0502 -24.6456
rtoes 20.2594
lfemur -56.8578 6.92292 -15.8849
ltibia 33.1634
lfoot -8.78551 13.7811
ltoes -24.8752
731
root -3.29162 15.0541 -12.5824 -162.65 50.6763 177.258
lowerback 26.3036 -1.49765 3.5115
upperback 14.2665 1.15664 1.16359
thorax 1.31335 1.61712 -0.99106
lowerneck -10.6248 -5.02314 -10.6412
upperneck -13.0317 -3.40832 20.2614
head -1.30443 -1.09754 8.0348
rclavicle 5.80451e-014 3.97569e-015
rhumerus 34.0005 21.4167 -40.6924
rradius 33.4735
rwrist -49.6384
rhand 7.42269 21.582
rfingers 7.12502
rthumb 32.6779 -5.48558
lclavicle 5.80451e-014 3.97569e-015
lhumerus 23.8094 -28.5762 30.3918
lradius 41.6648
lwrist 10.4385
lhand 34.8314 42.8956
lfingers 7.12502
lthumb 57.9902 58.6259
rfemur -50.5442 -1.68744 25.5665
rtibia 58.7032
rfoot -23.3692 -23.2858
rtoes 23.7223
lfemur -55.845 5.08493 -13.5244
ltibia 30.3058
lfoot -10.7873 15.7101
ltoes -15.2464
732
root -3.22312 15.0611 -12.7137 -162.139 51.8796 178.081
lowerback 26.4676 -1.2943 3.01724
upperback 14.5397 1.34686 1.18881
thorax 1.54564 1.6982 -0.723321
lowerneck -10.8488 -5.06268 -10.8065
upperneck -12.9777 -3.45436 20.2344
head -1.24305 -1.10423 8.04993
rclavicle -3.18055e-015 3.97569e-016
rhumerus 34.3447 21.9604 -39.9185
rradius 34.011
rwrist -50.0616
rhand 7.17098 21.735
rfingers 7.12502
rthumb 32.4384 -5.38208
lclavicle -3.18055e-015 3.97569e-016
lhumerus 24.0677 -28.2355 30.5386
lradius 41.5769
lwrist 10.4496
lhand 35.5187 42.4414
lfingers 7.12502
lthumb 58.5882 57.6231
rfemur -49.798 -1.23385 25.6766
rtibia 58.6155
rfoot -23.8655 -22.1059
rtoes 24.72
lfemur -54.9148 3.32508 -10.9969
ltibia 27.7556
lfoot -11.3253 18.5067
ltoes -13.1312
733
root -3.15477 15.048 -12.8465 -161.738 52.9295 178.45
lowerback 26.2205 -1.07983 2.25472
upperback 14.8032 1.45967 1.23901
thorax 1.94711 1.71445 -0.248211
lowerneck -10.9352 -5.10453 -10.9255
upperneck -13.0768 -3.49967 20.1422
head -1.25249 -1.12239 8.04004
rclavicle 1.19271e-014 -2.98177e-014
rhumerus 34.6212 22.5486 -39.0003
rradius 34.7883
rwrist -50.9689
rhand 5.77513 20.3933
rfingers 7.12502
rthumb 31.109 -6.98734
lclavicle 1.19271e-014 -2.98177e-014
lhumerus 24.4347 -27.6255 31.2399
lradius 41.1337
lwrist 9.96993
lhand 36.288 41.8637
lfingers 7.12502
lthumb 59.2534 56.4045
rfemur -49.4723 -0.91296 25.4622
rtibia 58.7013
rfoot -24.7216 -20.581
rtoes 26.3693
lfemur -54.398 1.50273 -8.83628
ltibia 25.5482
lfoot -12.5353 21.1563
ltoes -8.8111
